<svg viewBox="0 0 90 90" xmlns="http://www.w3.org/2000/svg"><path d="m32.51 1.81h43.27v34.82h-43.27z" fill="#fff"/><ellipse cx="45.15" cy="81.78" fill="#e6e6e6" rx="6.76" ry="6.75"/><ellipse cx="68.15" cy="81.78" fill="#e6e6e6" rx="6.77" ry="6.75"/><path d="m74.35 78.92-.53-.82a6.74 6.74 0 0 0 -11.32 0l-.53.82h-10.63l-.53-.82a6.74 6.74 0 0 0 -11.32 0l-.53.82h-3.28a2.38 2.38 0 0 1 -2.38-2.38l-11.74-38h62.53a2.38 2.38 0 0 1 2.34 1.94l.06.32-6.49 35.75a2.38 2.38 0 0 1 -2.38 2.38z" fill="#ffeb97"/><circle cx="42.78" cy="13.87" fill="#94d5d2" r="5.66"/><ellipse cx="42.78" cy="27.9" fill="#ff8898" rx="5.67" ry="5.66"/><g fill="#576065"><path d="m38.39 80.4h-2.71a4.19 4.19 0 0 1 -4.17-3.87l-12.15-39.33c-.33-.62-4.22-7.31-14-8.06v2.18a1.81 1.81 0 1 1 -3.61 0v-4.05a1.81 1.81 0 0 1 1.81-1.81c12.28 0 18.25 8.19 19.18 10.38a1.64 1.64 0 0 1 .06.17l12.2 39.67a1.81 1.81 0 0 1 .08.53.57.57 0 0 0 .57.57h2.71a1.81 1.81 0 1 1 0 3.61z"/><path d="m61.39 80.4h-9.47a1.81 1.81 0 0 1 0-3.61h9.47a1.81 1.81 0 1 1 0 3.61z"/><path d="m77.62 80.4h-2.7a1.81 1.81 0 1 1 0-3.61h2.71a.57.57 0 0 0 .57-.57 2 2 0 0 1 0-.32l6.43-35.4a.57.57 0 0 0 -.56-.46h-61.59a1.81 1.81 0 1 1 0-3.61h61.61a4.19 4.19 0 0 1 4.19 4.18 2 2 0 0 1 0 .32l-6.47 35.47a4.19 4.19 0 0 1 -4.19 4z"/><path d="m45.15 90a8.56 8.56 0 1 1 8.57-8.56 8.58 8.58 0 0 1 -8.57 8.56zm0-13.51a4.95 4.95 0 1 0 5 4.95 5 5 0 0 0 -5-4.95z"/><path d="m68.15 90a8.56 8.56 0 1 1 8.57-8.56 8.58 8.58 0 0 1 -8.57 8.56zm0-13.51a4.95 4.95 0 1 0 5 4.95 5 5 0 0 0 -5-4.95z"/><path d="m75.24 50.46h-37.88a1.81 1.81 0 1 1 0-3.61h37.88a1.81 1.81 0 1 1 0 3.61z"/><path d="m73.89 58.94h-35.18a1.81 1.81 0 0 1 0-3.61h35.18a1.81 1.81 0 0 1 0 3.61z"/><path d="m72.54 67.41h-31.12a1.81 1.81 0 1 1 0-3.61h31.12a1.81 1.81 0 0 1 0 3.61z"/><path d="m77.58 38.47h-3.58v-34.83h-39.63v34.86h-3.67v-34.86a3.65 3.65 0 0 1 3.64-3.64h39.59a3.65 3.65 0 0 1 3.65 3.64z"/><path d="m42.78 17.66-4-4a1.81 1.81 0 1 1 2.55-2.56l1.43 1.43 4.13-4.12a1.81 1.81 0 1 1 2.58 2.59z"/><path d="m42.78 31.68-4-4a1.81 1.81 0 0 1 2.55-2.56l1.43 1.43 4.13-4.12a1.81 1.81 0 0 1 2.58 2.57z"/><path d="m52.77 10.6h17.88v3.61h-17.88z"/><path d="m52.77 24.62h17.88v3.61h-17.88z"/></g></svg>